<svg width="311" height="128" viewBox="0 22 218 128" fill="none" xmlns="http://www.w3.org/2000/svg">
<path d="M18.5186 76.9668H5.35254V22.0264H18.5186V24.7026H8.36719V74.2598H18.5186V76.9668Z" fill="#91CDEF"/>
<path d="M225.958 76.9668V74.2598C227.743 74.2393 229.229 73.9932 230.419 73.5215C231.608 73.0498 232.49 72.3218 233.064 71.3374C233.659 70.3735 233.957 69.1328 233.957 67.6152V57.4023C233.957 55.249 234.397 53.5059 235.279 52.1729C236.161 50.8193 237.617 49.9683 239.647 49.6196V49.3735C237.617 49.0044 236.161 48.1533 235.279 46.8203C234.397 45.4668 233.957 43.7236 233.957 41.5908V31.4702C233.957 29.8911 233.659 28.6094 233.064 27.625C232.49 26.6201 231.608 25.8818 230.419 25.4102C229.25 24.9385 227.763 24.7026 225.958 24.7026V22.0264C228.358 22.0264 230.378 22.375 232.019 23.0723C233.68 23.749 234.941 24.7642 235.802 26.1177C236.664 27.4507 237.094 29.1118 237.094 31.1011V41.2524C237.094 42.9136 237.34 44.2568 237.833 45.2822C238.345 46.2871 239.135 47.0151 240.201 47.4663C241.268 47.9175 242.631 48.1431 244.292 48.1431V50.8193C242.631 50.8193 241.268 51.0552 240.201 51.5269C239.135 51.978 238.345 52.7061 237.833 53.7109C237.34 54.7158 237.094 56.0283 237.094 57.6484V67.8921C237.094 69.8608 236.653 71.522 235.771 72.8755C234.89 74.229 233.618 75.2441 231.957 75.9209C230.316 76.6182 228.317 76.9668 225.958 76.9668Z" fill="white"/>
<path d="M33.3569 40.7341C32.3999 40.7341 31.5431 40.9073 30.7866 41.2537C30.0392 41.6 29.4058 42.1013 28.8862 42.7576C28.3667 43.4047 27.9702 44.1931 27.6968 45.1228C27.4233 46.0434 27.2866 47.0824 27.2866 48.24C27.2866 49.7895 27.5054 51.1248 27.9429 52.2458C28.3804 53.3578 29.0457 54.2146 29.939 54.8162C30.8322 55.4086 31.9624 55.7048 33.3296 55.7048C34.1772 55.7048 35.0021 55.6228 35.8042 55.4587C36.6063 55.2947 37.4357 55.0714 38.2925 54.7888V57.5779C37.4813 57.8969 36.661 58.1293 35.8315 58.2751C35.0021 58.421 34.0451 58.4939 32.9604 58.4939C30.9188 58.4939 29.2235 58.0701 27.8745 57.2224C26.5347 56.3748 25.5321 55.1807 24.8667 53.6404C24.2104 52.1 23.8823 50.2953 23.8823 48.2263C23.8823 46.7133 24.092 45.3279 24.5112 44.0701C24.9305 42.8123 25.5412 41.7276 26.3433 40.8162C27.1453 39.8956 28.1343 39.1892 29.3101 38.697C30.495 38.1957 31.8485 37.9451 33.3706 37.9451C34.3732 37.9451 35.3576 38.059 36.3237 38.2869C37.299 38.5056 38.2013 38.8201 39.0308 39.2302L37.8823 41.9373C37.1896 41.6091 36.465 41.3266 35.7085 41.0896C34.952 40.8526 34.1681 40.7341 33.3569 40.7341ZM55.6558 50.6189C55.6558 51.8767 55.4917 52.9932 55.1636 53.9685C54.8354 54.9438 54.3569 55.7686 53.728 56.4431C53.0991 57.1085 52.3426 57.6189 51.4585 57.9744C50.5744 58.3207 49.5763 58.4939 48.4644 58.4939C47.4253 58.4939 46.4728 58.3207 45.6069 57.9744C44.741 57.6189 43.9891 57.1085 43.3511 56.4431C42.7222 55.7686 42.2345 54.9438 41.8882 53.9685C41.5418 52.9932 41.3687 51.8767 41.3687 50.6189C41.3687 48.9509 41.6558 47.5382 42.23 46.3806C42.8133 45.2139 43.6427 44.3253 44.7183 43.7146C45.7938 43.1039 47.0744 42.7986 48.5601 42.7986C49.9546 42.7986 51.1851 43.1039 52.2515 43.7146C53.3179 44.3253 54.1519 45.2139 54.7534 46.3806C55.355 47.5473 55.6558 48.96 55.6558 50.6189ZM44.6772 50.6189C44.6772 51.7218 44.8094 52.6651 45.0737 53.449C45.3472 54.2328 45.7664 54.8344 46.3315 55.2537C46.8966 55.6638 47.6258 55.8689 48.519 55.8689C49.4123 55.8689 50.1414 55.6638 50.7065 55.2537C51.2716 54.8344 51.6864 54.2328 51.9507 53.449C52.215 52.6651 52.3472 51.7218 52.3472 50.6189C52.3472 49.516 52.215 48.5818 51.9507 47.8162C51.6864 47.0414 51.2716 46.4535 50.7065 46.0525C50.1414 45.6423 49.4077 45.4373 48.5054 45.4373C47.1746 45.4373 46.2039 45.8839 45.5933 46.7771C44.9826 47.6703 44.6772 48.9509 44.6772 50.6189ZM53.1948 36.7693V37.0427C52.9761 37.307 52.6799 37.6261 52.3062 37.9998C51.9325 38.3643 51.5269 38.7517 51.0894 39.1619C50.6519 39.5629 50.2189 39.9503 49.7905 40.324C49.3621 40.6886 48.9748 40.9985 48.6284 41.2537H46.4819V40.8982C46.7827 40.5518 47.1154 40.1371 47.48 39.6541C47.8537 39.171 48.2183 38.6742 48.5737 38.1638C48.9383 37.6534 49.2437 37.1886 49.4897 36.7693H53.1948ZM64.4331 58.4939C62.6284 58.4939 61.1792 57.8376 60.0854 56.5251C59.0008 55.2035 58.4585 53.2576 58.4585 50.6873C58.4585 48.0896 59.0099 46.1254 60.1128 44.7947C61.2248 43.4639 62.6877 42.7986 64.5015 42.7986C65.2671 42.7986 65.937 42.9034 66.5112 43.113C67.0854 43.3136 67.5776 43.587 67.9878 43.9333C68.4071 44.2797 68.7625 44.6671 69.0542 45.0955H69.2046C69.159 44.8129 69.1043 44.4073 69.0405 43.8787C68.9858 43.3409 68.9585 42.8442 68.9585 42.3884V36.947H72.1851V58.2205H69.6694L69.0952 56.156H68.9585C68.6851 56.5935 68.3387 56.99 67.9194 57.3455C67.5093 57.6918 67.0171 57.9698 66.4429 58.1794C65.8778 58.3891 65.2078 58.4939 64.4331 58.4939ZM65.3354 55.8826C66.7118 55.8826 67.6825 55.4861 68.2476 54.6931C68.8127 53.9001 69.1043 52.7107 69.1226 51.1248V50.7009C69.1226 49.0056 68.8491 47.7068 68.3022 46.8044C67.7554 45.893 66.7573 45.4373 65.3081 45.4373C64.1506 45.4373 63.2664 45.9067 62.6558 46.8455C62.0542 47.7751 61.7534 49.074 61.7534 50.7419C61.7534 52.4099 62.0542 53.686 62.6558 54.5701C63.2664 55.4451 64.1597 55.8826 65.3354 55.8826ZM80.0054 43.0857V58.2205H76.7925V43.0857H80.0054ZM78.4194 37.2888C78.9116 37.2888 79.3354 37.421 79.6909 37.6853C80.0555 37.9496 80.2378 38.4054 80.2378 39.0525C80.2378 39.6905 80.0555 40.1462 79.6909 40.4197C79.3354 40.684 78.9116 40.8162 78.4194 40.8162C77.909 40.8162 77.4761 40.684 77.1206 40.4197C76.7743 40.1462 76.6011 39.6905 76.6011 39.0525C76.6011 38.4054 76.7743 37.9496 77.1206 37.6853C77.4761 37.421 77.909 37.2888 78.4194 37.2888ZM88.9331 64.947C86.8823 64.947 85.3101 64.5779 84.2163 63.8396C83.1226 63.1013 82.5757 62.0668 82.5757 60.7361C82.5757 59.8064 82.8674 59.018 83.4507 58.3708C84.034 57.7328 84.868 57.2908 85.9526 57.0447C85.5425 56.8624 85.187 56.5798 84.8862 56.197C84.5946 55.8051 84.4487 55.3722 84.4487 54.8982C84.4487 54.3331 84.6082 53.85 84.9272 53.449C85.2463 53.0479 85.7248 52.6606 86.3628 52.2869C85.5698 51.9496 84.9318 51.4028 84.4487 50.6462C83.9748 49.8806 83.7378 48.9828 83.7378 47.9529C83.7378 46.8591 83.9702 45.9294 84.4351 45.1638C84.8999 44.3891 85.5789 43.8012 86.4722 43.4001C87.3654 42.99 88.4455 42.7849 89.7124 42.7849C89.9858 42.7849 90.2821 42.8031 90.6011 42.8396C90.9292 42.8669 91.23 42.9034 91.5034 42.949C91.786 42.9854 92.0002 43.0264 92.146 43.072H97.3823V44.863L94.812 45.3416C95.0581 45.6879 95.2541 46.0844 95.3999 46.531C95.5457 46.9685 95.6187 47.447 95.6187 47.9666C95.6187 49.5343 95.0763 50.7693 93.9917 51.6716C92.9162 52.5649 91.4305 53.0115 89.5347 53.0115C89.0789 52.9932 88.6369 52.9568 88.2085 52.9021C87.8804 53.1026 87.6297 53.3259 87.4565 53.572C87.2834 53.809 87.1968 54.0779 87.1968 54.3787C87.1968 54.6248 87.2834 54.8253 87.4565 54.9802C87.6297 55.1261 87.8849 55.2354 88.2222 55.3083C88.5685 55.3813 88.9878 55.4177 89.48 55.4177H92.0913C93.7502 55.4177 95.0171 55.7686 95.8921 56.4705C96.7671 57.1723 97.2046 58.2022 97.2046 59.5603C97.2046 61.283 96.4937 62.6091 95.0718 63.5388C93.6499 64.4776 91.6037 64.947 88.9331 64.947ZM89.0562 62.6912C90.1772 62.6912 91.1206 62.5818 91.8862 62.363C92.6519 62.1443 93.2306 61.8298 93.6226 61.4197C94.0145 61.0186 94.2104 60.5401 94.2104 59.9841C94.2104 59.4919 94.0874 59.1137 93.8413 58.8494C93.5952 58.585 93.2261 58.4028 92.7339 58.3025C92.2417 58.2022 91.631 58.1521 90.9019 58.1521H88.5229C87.9305 58.1521 87.4064 58.2432 86.9507 58.4255C86.495 58.6169 86.1395 58.8904 85.8843 59.2458C85.6382 59.6013 85.5151 60.0297 85.5151 60.531C85.5151 61.2237 85.8205 61.7569 86.4312 62.1306C87.0509 62.5043 87.9259 62.6912 89.0562 62.6912ZM89.6851 50.906C90.6239 50.906 91.3211 50.6508 91.7769 50.1404C92.2326 49.6208 92.4604 48.8917 92.4604 47.9529C92.4604 46.932 92.2235 46.1664 91.7495 45.656C91.2847 45.1456 90.592 44.8904 89.6714 44.8904C88.769 44.8904 88.0809 45.1501 87.6069 45.6697C87.1421 46.1892 86.9097 46.9594 86.9097 47.9802C86.9097 48.9008 87.1421 49.6208 87.6069 50.1404C88.0809 50.6508 88.7736 50.906 89.6851 50.906ZM113.542 50.6189C113.542 51.8767 113.378 52.9932 113.05 53.9685C112.722 54.9438 112.244 55.7686 111.615 56.4431C110.986 57.1085 110.229 57.6189 109.345 57.9744C108.461 58.3207 107.463 58.4939 106.351 58.4939C105.312 58.4939 104.36 58.3207 103.494 57.9744C102.628 57.6189 101.876 57.1085 101.238 56.4431C100.609 55.7686 100.121 54.9438 99.7749 53.9685C99.4285 52.9932 99.2554 51.8767 99.2554 50.6189C99.2554 48.9509 99.5425 47.5382 100.117 46.3806C100.7 45.2139 101.529 44.3253 102.605 43.7146C103.681 43.1039 104.961 42.7986 106.447 42.7986C107.841 42.7986 109.072 43.1039 110.138 43.7146C111.205 44.3253 112.039 45.2139 112.64 46.3806C113.242 47.5473 113.542 48.96 113.542 50.6189ZM102.564 50.6189C102.564 51.7218 102.696 52.6651 102.96 53.449C103.234 54.2328 103.653 54.8344 104.218 55.2537C104.783 55.6638 105.513 55.8689 106.406 55.8689C107.299 55.8689 108.028 55.6638 108.593 55.2537C109.158 54.8344 109.573 54.2328 109.837 53.449C110.102 52.6651 110.234 51.7218 110.234 50.6189C110.234 49.516 110.102 48.5818 109.837 47.8162C109.573 47.0414 109.158 46.4535 108.593 46.0525C108.028 45.6423 107.294 45.4373 106.392 45.4373C105.061 45.4373 104.091 45.8839 103.48 46.7771C102.869 47.6703 102.564 48.9509 102.564 50.6189Z" fill="white"/>
<path d="M136.375 52.7791C136.375 53.9639 136.083 54.9848 135.5 55.8416C134.925 56.6983 134.096 57.3546 133.011 57.8103C131.936 58.266 130.651 58.4939 129.156 58.4939C128.427 58.4939 127.729 58.4529 127.064 58.3708C126.399 58.2888 125.77 58.1703 125.177 58.0154C124.594 57.8513 124.061 57.6554 123.578 57.4275V54.3376C124.389 54.6931 125.296 55.0167 126.298 55.3083C127.301 55.5909 128.322 55.7322 129.361 55.7322C130.208 55.7322 130.91 55.6228 131.466 55.4041C132.031 55.1762 132.451 54.8572 132.724 54.447C132.998 54.0278 133.134 53.5401 133.134 52.9841C133.134 52.3917 132.975 51.8904 132.656 51.4802C132.337 51.0701 131.854 50.6964 131.207 50.3591C130.569 50.0128 129.766 49.6436 128.8 49.2517C128.144 48.9874 127.515 48.6866 126.914 48.3494C126.321 48.0121 125.792 47.6156 125.328 47.1599C124.863 46.7042 124.494 46.1664 124.22 45.5466C123.956 44.9177 123.824 44.1794 123.824 43.3318C123.824 42.2016 124.093 41.2354 124.63 40.4333C125.177 39.6313 125.943 39.016 126.927 38.5876C127.921 38.1593 129.078 37.9451 130.4 37.9451C131.448 37.9451 132.432 38.0544 133.353 38.2732C134.283 38.4919 135.194 38.8018 136.087 39.2029L135.048 41.8416C134.228 41.5043 133.431 41.2354 132.656 41.0349C131.89 40.8344 131.106 40.7341 130.304 40.7341C129.611 40.7341 129.024 40.8389 128.541 41.0486C128.057 41.2582 127.688 41.5544 127.433 41.9373C127.187 42.311 127.064 42.7576 127.064 43.2771C127.064 43.8604 127.205 44.3526 127.488 44.7537C127.779 45.1456 128.226 45.5056 128.828 45.8337C129.438 46.1619 130.222 46.5264 131.179 46.9275C132.282 47.3832 133.216 47.8617 133.982 48.363C134.757 48.8643 135.349 49.4659 135.759 50.1677C136.169 50.8604 136.375 51.7309 136.375 52.7791ZM145.931 42.7986C147.28 42.7986 148.438 43.0766 149.404 43.6326C150.37 44.1886 151.113 44.977 151.632 45.9978C152.152 47.0186 152.412 48.24 152.412 49.6619V51.3845H142.308C142.345 52.852 142.736 53.9822 143.484 54.7751C144.24 55.5681 145.298 55.9646 146.656 55.9646C147.622 55.9646 148.488 55.8735 149.253 55.6912C150.028 55.4998 150.826 55.2218 151.646 54.8572V57.4685C150.889 57.824 150.119 58.0837 149.335 58.2478C148.552 58.4119 147.613 58.4939 146.519 58.4939C145.033 58.4939 143.725 58.2068 142.595 57.6326C141.474 57.0492 140.595 56.1833 139.957 55.0349C139.328 53.8865 139.013 52.46 139.013 50.7556C139.013 49.0603 139.3 47.6202 139.875 46.4353C140.449 45.2504 141.255 44.3481 142.294 43.7283C143.333 43.1085 144.546 42.7986 145.931 42.7986ZM145.931 45.2185C144.919 45.2185 144.099 45.5466 143.47 46.2029C142.85 46.8591 142.486 47.8207 142.376 49.0876H149.267C149.258 48.3311 149.13 47.6612 148.884 47.0779C148.647 46.4945 148.283 46.0388 147.791 45.7107C147.307 45.3826 146.688 45.2185 145.931 45.2185ZM163.923 42.7986C165.628 42.7986 166.954 43.2406 167.902 44.1248C168.859 44.9998 169.337 46.408 169.337 48.3494V58.2205H166.125V48.9509C166.125 47.7751 165.883 46.8956 165.4 46.3123C164.917 45.7198 164.169 45.4236 163.158 45.4236C161.69 45.4236 160.669 45.8748 160.095 46.7771C159.53 47.6794 159.248 48.9874 159.248 50.7009V58.2205H156.035V43.0857H158.537L158.988 45.1365H159.166C159.494 44.6078 159.899 44.1749 160.382 43.8376C160.875 43.4913 161.421 43.2315 162.023 43.0583C162.634 42.8852 163.267 42.7986 163.923 42.7986ZM179.468 55.8962C179.888 55.8962 180.302 55.8598 180.712 55.7869C181.123 55.7048 181.496 55.6091 181.833 55.4998V57.9333C181.478 58.0883 181.018 58.2205 180.453 58.3298C179.888 58.4392 179.3 58.4939 178.689 58.4939C177.832 58.4939 177.062 58.3526 176.378 58.0701C175.695 57.7784 175.153 57.2817 174.751 56.5798C174.35 55.878 174.15 54.9073 174.15 53.6677V45.533H172.085V44.0974L174.3 42.9626L175.353 39.7224H177.376V43.0857H181.71V45.533H177.376V53.6267C177.376 54.3923 177.568 54.962 177.951 55.3357C178.333 55.7094 178.839 55.8962 179.468 55.8962ZM188.123 43.0857V58.2205H184.91V43.0857H188.123ZM186.537 37.2888C187.029 37.2888 187.453 37.421 187.808 37.6853C188.173 37.9496 188.355 38.4054 188.355 39.0525C188.355 39.6905 188.173 40.1462 187.808 40.4197C187.453 40.684 187.029 40.8162 186.537 40.8162C186.026 40.8162 185.593 40.684 185.238 40.4197C184.891 40.1462 184.718 39.6905 184.718 39.0525C184.718 38.4054 184.891 37.9496 185.238 37.6853C185.593 37.421 186.026 37.2888 186.537 37.2888ZM197.816 58.4939C196.011 58.4939 194.562 57.8376 193.468 56.5251C192.384 55.2035 191.841 53.2576 191.841 50.6873C191.841 48.0896 192.393 46.1254 193.496 44.7947C194.608 43.4639 196.07 42.7986 197.884 42.7986C198.65 42.7986 199.32 42.9034 199.894 43.113C200.468 43.3136 200.96 43.587 201.371 43.9333C201.79 44.2797 202.145 44.6671 202.437 45.0955H202.587C202.542 44.8129 202.487 44.4073 202.423 43.8787C202.369 43.3409 202.341 42.8442 202.341 42.3884V36.947H205.568V58.2205H203.052L202.478 56.156H202.341C202.068 56.5935 201.722 56.99 201.302 57.3455C200.892 57.6918 200.4 57.9698 199.826 58.1794C199.261 58.3891 198.591 58.4939 197.816 58.4939ZM198.718 55.8826C200.095 55.8826 201.065 55.4861 201.63 54.6931C202.195 53.9001 202.487 52.7107 202.505 51.1248V50.7009C202.505 49.0056 202.232 47.7068 201.685 46.8044C201.138 45.893 200.14 45.4373 198.691 45.4373C197.533 45.4373 196.649 45.9067 196.039 46.8455C195.437 47.7751 195.136 49.074 195.136 50.7419C195.136 52.4099 195.437 53.686 196.039 54.5701C196.649 55.4451 197.542 55.8826 198.718 55.8826ZM223.574 50.6189C223.574 51.8767 223.41 52.9932 223.082 53.9685C222.753 54.9438 222.275 55.7686 221.646 56.4431C221.017 57.1085 220.261 57.6189 219.376 57.9744C218.492 58.3207 217.494 58.4939 216.382 58.4939C215.343 58.4939 214.391 58.3207 213.525 57.9744C212.659 57.6189 211.907 57.1085 211.269 56.4431C210.64 55.7686 210.153 54.9438 209.806 53.9685C209.46 52.9932 209.287 51.8767 209.287 50.6189C209.287 48.9509 209.574 47.5382 210.148 46.3806C210.731 45.2139 211.561 44.3253 212.636 43.7146C213.712 43.1039 214.992 42.7986 216.478 42.7986C217.873 42.7986 219.103 43.1039 220.169 43.7146C221.236 44.3253 222.07 45.2139 222.671 46.3806C223.273 47.5473 223.574 48.96 223.574 50.6189ZM212.595 50.6189C212.595 51.7218 212.727 52.6651 212.992 53.449C213.265 54.2328 213.684 54.8344 214.25 55.2537C214.815 55.6638 215.544 55.8689 216.437 55.8689C217.33 55.8689 218.059 55.6638 218.625 55.2537C219.19 54.8344 219.604 54.2328 219.869 53.449C220.133 52.6651 220.265 51.7218 220.265 50.6189C220.265 49.516 220.133 48.5818 219.869 47.8162C219.604 47.0414 219.19 46.4535 218.625 46.0525C218.059 45.6423 217.326 45.4373 216.423 45.4373C215.093 45.4373 214.122 45.8839 213.511 46.7771C212.901 47.6703 212.595 48.9509 212.595 50.6189Z" fill="#91CDEF"/>
</svg>
